<svg xmlns="http://www.w3.org/2000/svg" xmlns:xlink="http://www.w3.org/1999/xlink" width="24" height="22" version="1.1" style=""><rect id="backgroundrect" width="100%" height="100%" x="0" y="0" fill="none" stroke="none"/>
    <!-- Generator: Sketch 39.1 (31720) - http://www.bohemiancoding.com/sketch -->
    <title>GCP Copy 2</title>
    <desc>Created with Sketch.</desc>
    <defs/>
    
<g class="currentLayer" style=""><title>Layer 1</title><g id="Page-1" stroke="none" stroke-width="1" fill="#048cd1" fill-rule="evenodd" class="selected" fill-opacity="1">
        <g id="GCP-Copy" fill="#048cd1" fill-opacity="1" stroke="none" stroke-opacity="1">
            <path d="M14.337148661891556,10.83205613669281 C14.337148661891556,9.46746900669281 13.254218661891557,8.36133770669281 11.918240361891556,8.36133770669281 C10.582203561891555,8.36133770669281 9.499215111891555,9.46746900669281 9.499215111891555,10.83205613669281 C9.499215111891555,12.19658353669281 10.582203561891555,13.302714836692811 11.918240361891556,13.302714836692811 C13.254218661891557,13.302714836692811 14.337148661891556,12.19658353669281 14.337148661891556,10.83205613669281 " id="Fill-1" fill="#048cd1" fill-opacity="1" stroke="none" stroke-opacity="1"/>
            <path d="M20.795970561891554,4.86654631669281 C20.785890261891556,4.848705736692811 18.653724861891554,1.08340205669281 18.653724861891554,1.08340205669281 C18.261210661891557,0.3891130316928102 17.549283261891556,0.0006286939528099555 16.816964561891556,-4.864718983199623e-8 L7.020037831891556,-4.864718983199623e-8 C6.235009421891556,-4.864718983199623e-8 5.549706251891556,0.43548279869281004 5.183046731891556,1.0829304966928102 L2.428060251891556,5.95796488669281 L4.876253141891556,10.289529836692811 L8.244365121891557,4.33109338669281 L19.877513461891557,4.33172213669281 C20.243326561891557,4.33195790669281 20.599136361891556,4.52592500669281 20.795431961891556,4.87259795669281 L15.902047161891556,4.87259795669281 L19.266157761891556,10.82388253669281 L15.587173961891557,17.33160423669281 L13.448083161891557,21.11443413669281 C13.264868761891556,21.43792223669281 12.922601961891555,21.65562433669281 12.530472461891556,21.65593873669281 L14.974894861891556,17.33160423669281 L8.244211221891556,17.33160423669281 L4.856246531891556,11.33732943669281 L4.570075131891556,10.83111303669281 L2.427983301891556,7.040345276692811 C2.2461540418915558,6.71803609669281 2.232303321891556,6.30856747669281 2.425444001891556,5.96260185669281 L0.2844294598915559,9.74849686669281 C-0.10793084660844421,10.44286443669281 -0.08138362050844423,11.26683163669281 0.2841986148915559,11.91498673669281 L5.182661991891556,20.58063163669281 C5.575176191891556,21.27492063669281 6.287180491891556,21.66332643669281 7.019422241891556,21.66411233669281 L12.530472461891556,21.66332643669281 C12.570639561891555,21.66332643669281 12.609960261891556,21.65963253669281 12.649050061891556,21.65515273669281 L16.816195061891555,21.65593873669281 C17.601223461891557,21.65593873669281 18.286680561891554,21.22029863669281 18.653340061891555,20.57292953669281 L23.551803461891556,11.90728463669281 C23.944240761891557,11.21299553669281 23.917693461891556,10.38894983669281 23.552034361891558,9.74079476669281 L20.795970561891554,4.86654631669281 z" id="Fill-2" fill="#048cd1" fill-opacity="1" stroke="none" stroke-opacity="1"/>
        </g>
    </g></g></svg>